<?xml version="1.0" encoding="UTF-8" standalone="no"?>
<!DOCTYPE svg PUBLIC "-//W3C//DTD SVG 20010904//EN"
              "http://www.w3.org/TR/2001/REC-SVG-20010904/DTD/svg10.dtd">

<svg xmlns="http://www.w3.org/2000/svg"
     width="3.77667in" height="3.14333in"
     viewBox="0 0 1133 943">
  <path id="Seleção"
        fill="#00df00"
        d="M 932.00,155.00
           C 932.00,155.00 868.00,175.02 868.00,175.02
             868.00,175.02 750.00,212.02 750.00,212.02
             750.00,212.02 612.00,255.42 612.00,255.42
             612.00,255.42 547.00,275.98 547.00,275.98
             547.00,275.98 394.00,323.98 394.00,323.98
             394.00,323.98 214.00,380.34 214.00,380.34
             214.00,380.34 150.00,400.42 150.00,400.42
             141.86,402.81 129.06,407.88 121.00,408.48
             107.50,409.50 95.64,399.71 95.04,386.00
             94.05,363.51 115.36,360.10 132.00,354.67
             132.00,354.67 186.00,337.98 186.00,337.98
             186.00,337.98 259.00,314.98 259.00,314.98
             259.00,314.98 613.00,203.98 613.00,203.98
             613.00,203.98 737.00,164.98 737.00,164.98
             737.00,164.98 804.00,143.86 804.00,143.86
             804.00,143.86 886.00,118.02 886.00,118.02
             886.00,118.02 983.00,87.67 983.00,87.67
             983.00,87.67 996.00,83.56 996.00,83.56
             1007.81,79.88 1017.39,76.00 1028.96,83.56
             1032.80,85.94 1035.84,89.60 1037.20,94.00
             1038.19,97.20 1038.04,101.62 1038.00,105.00
             1037.85,117.45 1031.95,121.56 1024.09,130.00
             1024.09,130.00 1002.17,153.00 1002.17,153.00
             1002.17,153.00 979.09,177.00 979.09,177.00
             979.09,177.00 890.04,270.00 890.04,270.00
             890.04,270.00 800.04,364.00 800.04,364.00
             800.04,364.00 772.96,393.00 772.96,393.00
             772.96,393.00 731.04,436.00 731.04,436.00
             731.04,436.00 703.96,465.00 703.96,465.00
             703.96,465.00 686.04,483.00 686.04,483.00
             686.04,483.00 658.96,512.00 658.96,512.00
             658.96,512.00 618.04,554.00 618.04,554.00
             618.04,554.00 568.96,606.00 568.96,606.00
             568.96,606.00 508.04,669.00 508.04,669.00
             508.04,669.00 480.96,698.00 480.96,698.00
             480.96,698.00 463.04,716.00 463.04,716.00
             463.04,716.00 452.00,728.00 452.00,728.00
             452.00,728.00 353.00,831.00 353.00,831.00
             342.11,841.94 327.20,863.79 311.00,864.00
             308.30,864.03 304.58,864.09 302.00,863.47
             290.54,860.70 285.75,849.80 286.01,839.00
             286.28,828.24 293.83,821.18 301.00,814.00
             301.00,814.00 328.00,786.00 328.00,786.00
             328.00,786.00 340.04,773.00 340.04,773.00
             340.04,773.00 388.04,723.00 388.04,723.00
             388.04,723.00 430.04,679.00 430.04,679.00
             430.04,679.00 445.91,663.00 445.91,663.00
             445.91,663.00 473.04,634.00 473.04,634.00
             473.04,634.00 490.96,616.00 490.96,616.00
             490.96,616.00 544.04,560.00 544.04,560.00
             544.04,560.00 559.96,544.00 559.96,544.00
             559.96,544.00 698.04,399.00 698.04,399.00
             698.04,399.00 739.96,356.00 739.96,356.00
             739.96,356.00 767.04,327.00 767.04,327.00
             767.04,327.00 783.91,310.04 783.91,310.04
             783.91,310.04 812.04,280.00 812.04,280.00
             812.04,280.00 871.96,218.00 871.96,218.00
             871.96,218.00 902.04,186.00 902.04,186.00
             902.04,186.00 917.96,170.00 917.96,170.00
             917.96,170.00 932.00,155.00 932.00,155.00 Z" />
</svg>
